<svg xmlns="http://www.w3.org/2000/svg" width="35.246" height="36.828" viewBox="0 0 35.246 36.828"><defs><style>.a{fill:#6393e4;}.b{fill:#474979;}.c{fill:#f9bd91;}.d{fill:#eaa77a;}.e{fill:#3b3f6d;}.f{fill:#fcd2ae;}.g{fill:#e5e4e3;}.h{fill:#c7d6e5;}.i{fill:#ff3c63;}.j{fill:#ff0435;}.k{fill:#ff738d;}</style></defs><g transform="translate(0 0)"><path class="a" d="M28.623,22a17.625,17.625,0,0,0-6.342,34.069h0l4.308,1.059a17.689,17.689,0,0,0,7.06-.611l4.291-1.934h0A17.624,17.624,0,0,0,28.623,22Z" transform="translate(-11 -20.418)"/><path class="b" d="M163.593,350.568a3.805,3.805,0,0,0-.514,2.8l.27,1.716a17.514,17.514,0,0,0,4.308,1.059l-.456-2.971a.85.85,0,0,1,.154-.687l3.445-4.227a.508.508,0,0,1,.873.108l3.042,7.166a17.529,17.529,0,0,0,4.291-1.935l-3.672-9.407h-7.59Z" transform="translate(-152.068 -319.434)"/><rect class="c" width="2.634" height="2.634" transform="matrix(0.986, -0.167, 0.167, 0.986, 15.402, 9.241)"/><rect class="d" width="1.468" height="2.634" transform="matrix(0.986, -0.167, 0.167, 0.986, 15.402, 9.241)"/><path class="b" d="M192.967,72.227Z" transform="translate(-179.878 -67.032)"/><path class="b" d="M192.838,72.478Z" transform="translate(-179.758 -67.265)"/><path class="b" d="M185.361.2c-1.778.568-1.77,1.63-1.7,2.009a.212.212,0,0,1-.083.208c-.866.627.034,2.758.034,2.758a.782.782,0,0,1,.283.034,1.654,1.654,0,0,1,.031-.348A1.417,1.417,0,0,1,184,4.6a.759.759,0,0,0,.034-.477c-.115-.457-.259-1.373.3-1.756a2.287,2.287,0,0,1,1.565-.237,1.306,1.306,0,0,0,.812-.142,2.287,2.287,0,0,1,1.553-.31c.658.167.792,1.08.84,1.551a.766.766,0,0,0,.195.441,2.105,2.105,0,0,1,.22.265,1.655,1.655,0,0,1,.144.309c.086-.062.2-.178.321-.182-.071-.488-.118-1.02-.118-1.02C189.947.305,187.275-.408,185.361.2Z" transform="translate(-170.811 0)"/><path class="e" d="M184.963,3.7a1.138,1.138,0,0,1,.379-.784c-1.76.569-1.752,1.626-1.687,2a.212.212,0,0,1-.083.208c-.867.627.034,2.759.034,2.759a.782.782,0,0,1,.283.034,1.653,1.653,0,0,1,.032-.348A1.415,1.415,0,0,1,184,7.3a.759.759,0,0,0,.034-.477c-.115-.457-.259-1.373.3-1.756a2.068,2.068,0,0,1,1.3-.267A1.142,1.142,0,0,1,184.963,3.7Z" transform="translate(-170.81 -2.702)"/><path class="c" d="M273.432,56.338a.539.539,0,0,0-.553.113,1.715,1.715,0,0,1,.094.5l.037,1.076q.022.127.036.251c.376.043.5-.3.491-.525a1.611,1.611,0,0,1,.015-.286C273.6,57.163,273.851,56.6,273.432,56.338Z" transform="translate(-254.042 -52.248)"/><path class="d" d="M274.9,67.636c.015-.106.055-.242.084-.386a.513.513,0,0,1-.652.183l.027.763q.022.127.036.251c.376.043.5-.3.491-.525A1.611,1.611,0,0,1,274.9,67.636Z" transform="translate(-255.394 -62.413)"/><path class="f" d="M198.267,24.784a1.422,1.422,0,0,0-.169-.23.768.768,0,0,1-.2-.441c-.048-.472-.226-1.379-.885-1.547a2.292,2.292,0,0,0-1.556.311,1.31,1.31,0,0,1-.814.143,2.292,2.292,0,0,0-1.569.237c-.565.383-.421,1.3-.3,1.76a.76.76,0,0,1-.034.478,1.42,1.42,0,0,0-.079.265,1.709,1.709,0,0,0,.052.856l.329,1.027a3.926,3.926,0,0,0,2.034,2.813,2.084,2.084,0,0,0,2.514-.441,3.926,3.926,0,0,0,.955-3.337l-.04-1.078A1.708,1.708,0,0,0,198.267,24.784Z" transform="translate(-179.564 -20.903)"/><path class="c" d="M196.093,36.172a4.44,4.44,0,0,1-1.67-2.877l-.294-1.033a2.226,2.226,0,0,1-.075-.852,1.634,1.634,0,0,1,.05-.26.957.957,0,0,0,.006-.473c-.107-.46-.255-1.377.16-1.734a.883.883,0,0,1,.08-.06,2.048,2.048,0,0,0-1.27.269c-.565.383-.421,1.3-.3,1.76a.76.76,0,0,1-.034.478,1.42,1.42,0,0,0-.079.265,1.709,1.709,0,0,0,.052.856l.329,1.027a3.926,3.926,0,0,0,2.034,2.813,2.066,2.066,0,0,0,1.729.1A1.43,1.43,0,0,1,196.093,36.172Z" transform="translate(-179.565 -26.798)"/><path class="c" d="M275.743,88.072a1.382,1.382,0,0,1-.9-2.5l6.287-4.516a1.382,1.382,0,1,1,1.613,2.245l-6.287,4.516A1.375,1.375,0,0,1,275.743,88.072Z" transform="translate(-255.33 -74.983)"/><path class="c" d="M89.727,132.945a1.382,1.382,0,0,1-.467-.049l-7.45-2.1a1.382,1.382,0,1,1,.751-2.661l7.45,2.1a1.382,1.382,0,0,1-.283,2.71Z" transform="translate(-75.782 -118.868)"/><path class="g" d="M223.475,143.3l-.569.106-.008.034a1.413,1.413,0,0,1-2.593.378h0l-.663.346,1.845,14.482a16.661,16.661,0,0,0,3.523-.433Z" transform="translate(-204.634 -132.991)"/><path class="h" d="M224.423,163.005a1.874,1.874,0,0,1-3.649-.29l-1.034-8.118-.1.051,1.845,14.482a16.662,16.662,0,0,0,3.523-.433Z" transform="translate(-204.633 -143.477)"/><path class="i" d="M273.036,97.236l-1.5-2.53a.317.317,0,0,0-.446-.1L266.1,97.855l-.655,1.041-.2.472,2.023,14.475a.218.218,0,0,0,.285.176l3.27-1.223a.247.247,0,0,0,.166-.272L269.485,101a.429.429,0,0,1,.149-.395l3.333-2.961A.317.317,0,0,0,273.036,97.236Z" transform="translate(-246.954 -87.75)"/><path class="i" d="M134.146,134.8l-.371-.353-1.016-.692-5.786-1.515-.667,3.1a.37.37,0,0,0,.243.428l4.135,1.6a.37.37,0,0,1,.248.3l1.265,11.291a.37.37,0,0,0,.372.321l2.671.04a.35.35,0,0,0,.342-.4Z" transform="translate(-118.004 -122.724)"/><path class="j" d="M129.9,135.944a2.415,2.415,0,0,1,2.1-2.393l-5.02-1.315-.667,3.1a.37.37,0,0,0,.242.428l3.7,1.432A2.4,2.4,0,0,1,129.9,135.944Z" transform="translate(-118.003 -122.724)"/><path class="k" d="M259.055,134.94a.249.249,0,0,0-.344.078l-.752,1.2a.249.249,0,0,0,.078.344l.41.258,1.018-1.618Z" transform="translate(-240.16 -125.198)"/><path class="k" d="M215.243,146.632l-1.167-.8a.249.249,0,0,0-.347.066l-.273.4,1.579,1.076.273-.4A.249.249,0,0,0,215.243,146.632Z" transform="translate(-198.894 -135.306)"/><path class="f" d="M90.6,62.475a1.382,1.382,0,0,0-1.732-.906l-.551.172c.014-.234-.036-.479-.283-.553-.468-.14-.939.847-1.015,1.016l-.012.007-.015.01-.012.008-5.6,4.017a1.382,1.382,0,0,0,1.611,2.247l5.416-3.883,1.29-.4A1.382,1.382,0,0,0,90.6,62.475Z" transform="translate(-75.782 -56.774)"/><path class="c" d="M84.033,122.2a1.62,1.62,0,0,1-1.471-2.3l-1.182.847A1.382,1.382,0,1,0,82.99,123l1.113-.8Z" transform="translate(-75.782 -111.278)"/><path class="f" d="M370.874,8.864a1.382,1.382,0,0,0-1.955-.021l-.415.406c-.1-.263-.3-.637-.645-.537-.453.134-.332,1.151-.3,1.385l-5.322,3.815a1.382,1.382,0,0,0,1.611,2.247c5.7-4.09,5.715-4.08,5.879-4.24l1.123-1.1A1.382,1.382,0,0,0,370.874,8.864Z" transform="translate(-336.44 -7.841)"/><path class="c" d="M362.717,79.655l-.476.341a1.382,1.382,0,0,0,1.611,2.247l.552-.4A1.62,1.62,0,0,1,362.717,79.655Z" transform="translate(-336.441 -73.925)"/><path class="e" d="M167.484,422.956a2.339,2.339,0,0,1-3.3-2.663l-.588.9a3.805,3.805,0,0,0-.514,2.8l.27,1.716a17.513,17.513,0,0,0,4.308,1.059L167.2,423.8A.95.95,0,0,1,167.484,422.956Z" transform="translate(-152.067 -390.061)"/><path class="e" d="M310.218,428.392a2.543,2.543,0,0,1-4.428,1.883l1.445,3.4a17.529,17.529,0,0,0,4.291-1.935Z" transform="translate(-284.586 -397.578)"/></g></svg>