<svg xmlns="http://www.w3.org/2000/svg" width="36.828" height="36.828" viewBox="0 0 36.828 36.828"><defs><style>.a{fill:#da90f8;}.b{fill:#b760ea;}.c{fill:#f2f2fc;}.d{fill:#d8d8fc;}.e{fill:#ffde46;}.f{fill:#ff9f04;}.g{fill:#444c75;}.h{fill:#213056;}.i{fill:#0f1a35;}</style></defs><g transform="translate(0 0)"><path class="a" d="M204.658,0H183.079A1.068,1.068,0,0,0,182,1.079v10.79a1.01,1.01,0,0,0,.194.6L190.826,25.1a1.05,1.05,0,0,0,.669.453,12.462,12.462,0,0,0,2.374.237,11.88,11.88,0,0,0,11.868-11.826V1.079A1.068,1.068,0,0,0,204.658,0Zm0,0" transform="translate(-168.909)"/><path class="b" d="M358.868,1.079V13.962A11.88,11.88,0,0,1,347,25.787V0h10.79A1.068,1.068,0,0,1,358.868,1.079Zm0,0" transform="translate(-322.04)"/><path class="c" d="M305.237,165a6.259,6.259,0,0,0-2.59.539,1.091,1.091,0,0,0-.647.993v3.863a1.068,1.068,0,0,0,1.079,1.079h7.445a1.148,1.148,0,0,0,.842-.388,1.135,1.135,0,0,0,.216-.906A6.491,6.491,0,0,0,305.237,165Zm0,0" transform="translate(-280.277 -153.131)"/><path class="d" d="M353.344,170.179a1.135,1.135,0,0,1-.216.906,1.148,1.148,0,0,1-.842.388H347V165A6.491,6.491,0,0,1,353.344,170.179Zm0,0" transform="translate(-322.04 -153.132)"/><path class="e" d="M22.658,153.5H1.079A1.068,1.068,0,0,0,0,154.579v12.84a11.869,11.869,0,0,0,23.737.043V154.579A1.068,1.068,0,0,0,22.658,153.5Zm0,0" transform="translate(0 -142.459)"/><path class="f" d="M176.869,154.579v12.883A11.88,11.88,0,0,1,165,179.287V153.5h10.79A1.068,1.068,0,0,1,176.869,154.579Zm0,0" transform="translate(-153.131 -142.459)"/><path class="c" d="M89,348.888a1.147,1.147,0,0,0-.842-.388H77.584a1.147,1.147,0,0,0-.842.388,1.135,1.135,0,0,0-.216.906,6.475,6.475,0,0,0,12.688,0A1.135,1.135,0,0,0,89,348.888Zm0,0" transform="translate(-71.003 -323.432)"/><path class="g" d="M65.395,217.816a1.079,1.079,0,0,1-1.079-1.079,1.079,1.079,0,1,0-2.158,0,1.079,1.079,0,0,1-2.158,0,3.237,3.237,0,1,1,6.474,0A1.079,1.079,0,0,1,65.395,217.816Zm0,0" transform="translate(-55.684 -198.143)"/><path class="h" d="M185.395,217.816a1.079,1.079,0,0,1-1.079-1.079,1.079,1.079,0,1,0-2.158,0,1.079,1.079,0,0,1-2.158,0,3.237,3.237,0,1,1,6.474,0A1.079,1.079,0,0,1,185.395,217.816Zm0,0" transform="translate(-167.053 -198.143)"/><path class="h" d="M245.237,64.316A3.241,3.241,0,0,1,242,61.079a1.079,1.079,0,1,1,2.158,0,1.079,1.079,0,0,0,2.158,0,1.079,1.079,0,1,1,2.158,0A3.241,3.241,0,0,1,245.237,64.316Zm0,0" transform="translate(-224.593 -55.684)"/><path class="i" d="M365.237,64.316A3.241,3.241,0,0,1,362,61.079a1.079,1.079,0,0,1,2.158,0,1.079,1.079,0,1,0,2.158,0,1.079,1.079,0,0,1,2.158,0A3.241,3.241,0,0,1,365.237,64.316Zm0,0" transform="translate(-335.961 -55.684)"/><path class="d" d="M171.344,349.795A6.491,6.491,0,0,1,165,354.974V348.5h5.287a1.148,1.148,0,0,1,.842.388A1.135,1.135,0,0,1,171.344,349.795Zm0,0" transform="translate(-153.131 -323.432)"/></g></svg>