<svg xmlns="http://www.w3.org/2000/svg" width="16.067" height="15.623" viewBox="0 0 16.067 15.623"><defs><style>.a{fill:#dd3e46;}.b{fill:#eb8cb3;}.c{fill:#f4f4e6;}.d{fill:#195c85;}.e{fill:#1f729b;}.f{fill:#50b2d8;}.g{fill:#206f8e;}.h{fill:#394d5c;}.i{fill:#2482a8;}</style></defs><g transform="translate(0 0)"><g transform="translate(0 0)"><path class="a" d="M24.232,12.966l1.077,5.118c.46.15.736.539,1.347.539L25.579,13.5l.808-2.963a2.94,2.94,0,0,0-.269-1.886L25.579,7.31l.269-1.077a7.845,7.845,0,0,0,.539-2.155V3h-.808c-.893,0-1.616.454-1.616,1.347,0-.893-.723-1.347-1.616-1.347h-.808V4.077a7.845,7.845,0,0,0,.539,2.155l.269,1.077-.539,1.347a2.94,2.94,0,0,0-.269,1.886l.808,2.963L21,18.084c.808,0,1.347.539,2.155.539a1.227,1.227,0,0,0,.808-.269Z" transform="translate(-21 -3)"/><path class="b" d="M22.892,3s-.808,4.848,4.848,7.812l.539-1.347S24.239,7.31,24.239,3Z" transform="translate(-22.353 -3)"/><g transform="translate(1.616 2.424)"><path class="c" d="M27,28h.539v.539H27Z" transform="translate(-27 -23.69)"/><path class="c" d="M31,31h.539v.539H31Z" transform="translate(-29.923 -25.882)"/><path class="c" d="M28,35h.539v.539H28Z" transform="translate(-27.731 -28.805)"/><path class="c" d="M35,34h.539v.539H35Z" transform="translate(-32.845 -28.074)"/><path class="c" d="M34,12h.539v.539H34Z" transform="translate(-32.114 -12)"/></g></g><g transform="translate(6.734 0)"><path class="d" d="M24.222,12.966H21.778l-.667-.808-.667.808H18V3h6.222Z" transform="translate(-16.445 -3)"/><path class="e" d="M11.667,3h.889v9.963H11V3.808A.748.748,0,0,1,11.667,3Z" transform="translate(-11 -3)"/><path class="e" d="M0,0H1.555V9.966H.667A.748.748,0,0,1,0,9.158Z" transform="translate(9.333 9.966) rotate(180)"/><path class="f" d="M26,3l1.333,4.31L28.667,3Z" transform="translate(-22.667 -3)"/><path class="g" d="M31,17h.444v5.387H31Z" transform="translate(-26.556 -13.229)"/><path class="h" d="M29.222,3,29,5.155l.667,2.155.667-2.155L30.111,3Z" transform="translate(-25 -3)"/><g transform="translate(2.444)"><path class="e" d="M32,7.31,34,6.5V3h-.666Z" transform="translate(-29.778 -3)"/><path class="e" d="M25,7.31,23,6.5V3h.667Z" transform="translate(-22.778 -3)"/><path class="e" d="M22,23h1.333v1.616a.5.5,0,0,1-.444.539h-.444A.5.5,0,0,1,22,24.616Z" transform="translate(-22 -17.613)"/></g><path class="g" d="M35,22h1.778v.539H35Z" transform="translate(-29.667 -16.882)"/><path class="i" d="M11,36h1.555v1.077H11Z" transform="translate(-11 -27.111)"/><path class="i" d="M46,36h1.555v1.077H46Z" transform="translate(-38.222 -27.111)"/><path class="e" d="M24.222,43.465H21.778l-.444-4.31h-.444l-.444,4.31H18V37.808h2.444L21.111,37l.667.808h2.444Z" transform="translate(-16.445 -27.842)"/><path class="i" d="M18,40h1.333v.539a1,1,0,0,1-.889,1.077H18Z" transform="translate(-16.445 -30.034)"/><path class="i" d="M0,0H.444a1,1,0,0,1,.889,1.077v.539H0Z" transform="translate(7.778 11.582) rotate(180)"/></g></g></svg>