<svg xmlns="http://www.w3.org/2000/svg" width="36.828" height="36.828" viewBox="0 0 36.828 36.828"><defs><style>.a{fill:#515a6e;}.b{fill:#e5d6b9;}.c{fill:#d1a982;}.d{fill:#49aab7;}.e{fill:#488089;}.f{fill:#5cbf96;}.g{fill:#529e5f;}.h{fill:#e6e6e6;}.i{fill:#ccc;}.j{fill:#ea7e5a;}.k{fill:#d64f39;}.l{fill:#f7d65e;}.m{fill:#d1a22a;}.n{fill:#ed5972;}.o{fill:#d8375a;}</style></defs><g transform="translate(0 0)"><path class="a" d="M36.828,18.414A18.376,18.376,0,0,1,31.764,31.1q-.565.6-1.182,1.139a18.4,18.4,0,0,1-4.1,2.737,18.325,18.325,0,0,1-6.312,1.774q-.866.082-1.754.083t-1.729-.08a18.276,18.276,0,0,1-1.891-.276q-.586-.116-1.158-.271a18.245,18.245,0,0,1-3.913-1.549c-.128-.068-.256-.139-.381-.21A18.414,18.414,0,0,1,8.186,3.1q.725-.486,1.5-.9l.039-.021A18.489,18.489,0,0,1,23.018.58l.19.051q.266.071.528.15A18.455,18.455,0,0,1,33.82,8.323q.368.561.7,1.149a18.331,18.331,0,0,1,2.313,8.942Zm0,0" transform="translate(0 0)"/><path class="b" d="M173.225,6.9c0,.086,0,.172,0,.258-.112,4.045-6.21,4.045-6.323,0,0-.086,0-.172,0-.258A9.085,9.085,0,0,1,170.06,0,9.08,9.08,0,0,1,173.225,6.9Zm0,0" transform="translate(-154.89 0)"/><path class="c" d="M170.056,10.189a3.027,3.027,0,0,1-3.162-3.033c0-.086,0-.172,0-.258A9.086,9.086,0,0,1,170.056,0a17.783,17.783,0,0,0-.7,3.358,29.927,29.927,0,0,0-.2,3.54c0,.086,0,.172,0,.258C169.175,9.178,169.616,10.189,170.056,10.189Zm0,0" transform="translate(-154.887 0)"/><path class="d" d="M180.217,6.9c-2.468,1.1-2.877-2.516-4-1.394-.012.012-.024.024-.036.035C175.074,6.6,174,5.481,174.6,3.358A9.121,9.121,0,0,1,177.052,0a9.08,9.08,0,0,1,3.165,6.9Zm0,0" transform="translate(-161.882 0)"/><path class="e" d="M177.05,0a17.784,17.784,0,0,0-.7,3.358c-.082.688-.142,1.418-.174,2.18C175.072,6.6,174,5.481,174.6,3.358A9.117,9.117,0,0,1,177.05,0Zm0,0" transform="translate(-161.881 0)"/><path class="f" d="M181.739,127.855l-.344,10.14-.59,17.412a18.276,18.276,0,0,1-1.891-.276q-.586-.116-1.158-.271l-.572-16.865-.344-10.14Zm0,0" transform="translate(-164.12 -118.658)"/><path class="g" d="M178.914,155.131q-.586-.116-1.158-.271l-.572-16.865-.344-10.14h1.847l.085,10.14Zm0,0" transform="translate(-164.12 -118.659)"/><path class="h" d="M181.739,127.852l-.344,10.14h-4.211l-.344-10.14Zm0,0" transform="translate(-164.12 -118.656)"/><path class="i" d="M178.772,137.991h-1.588l-.344-10.14h1.848Zm0,0" transform="translate(-164.12 -118.655)"/><path class="d" d="M418.666,115.71l-.039,1.149-.3,8.751-.346,10.2a18.442,18.442,0,0,1-2.108,2.673q-.565.6-1.182,1.139l-.475-14.013-.336-9.9Zm0,0" transform="translate(-384.112 -107.387)"/><path class="e" d="M415.876,138.484q-.565.6-1.182,1.139l-.475-14.013-.336-9.9h1.8l.083,9.9Zm0,0" transform="translate(-384.112 -107.387)"/><path class="h" d="M418.67,115.715l-.336,9.9h-4.111l-.336-9.9Zm0,0" transform="translate(-384.116 -107.392)"/><path class="i" d="M415.773,125.614h-1.55l-.336-9.9h1.8Zm0,0" transform="translate(-384.115 -107.392)"/><path class="b" d="M391.6,8.844l-1.15,3.888-1.124,3.8h-4.783l-1.668-5.639h0l-.606-2.048Zm0,0" transform="translate(-354.776 -8.208)"/><path class="c" d="M386.351,16.53h-1.8l-1.668-5.639h0l-.606-2.048h2.552Zm0,0" transform="translate(-354.776 -8.208)"/><path class="j" d="M391.6,8.844l-1.15,3.888a3.392,3.392,0,0,0-1.563-1.638c-1.854-.655-1.6,1.07-3.157,1.739-.037.016-.073.03-.109.044-1.489.557-2.4-.8-2.745-1.985h0l-.606-2.048Zm0,0" transform="translate(-354.776 -8.208)"/><path class="k" d="M385.625,12.881c-1.489.558-2.4-.8-2.745-1.985h0l-.606-2.048h2.552Zm0,0" transform="translate(-354.776 -8.211)"/><path class="l" d="M286.692,5.975v29a18.325,18.325,0,0,1-6.312,1.774V5.975l1.8-3.4L283.229.579,283.535,0l.412.781.947,1.793Zm0,0" transform="translate(-260.211 0)"/><path class="b" d="M286.671,5.979a6.735,6.735,0,0,1-3.159.782,6.787,6.787,0,0,1-1.219-.11,6.69,6.69,0,0,1-1.938-.672L283.512,0h0Zm0,0" transform="translate(-260.189 0)"/><path class="m" d="M283.535,0l-.116.631-1.124,6.13v29.7a18.3,18.3,0,0,1-1.916.284V5.975l1.8-3.4L283.229.579Zm0,0" transform="translate(-260.211 0)"/><path class="c" d="M283.513,0l-1.22,6.65a6.691,6.691,0,0,1-1.938-.672L283.512,0Zm0,0" transform="translate(-260.189 0)"/><path class="n" d="M308.078,2.573a2.9,2.9,0,0,1-1.36.337,2.882,2.882,0,0,1-.525-.047,2.866,2.866,0,0,1-.834-.289L306.718,0Zm0,0" transform="translate(-283.395 0)"/><path class="o" d="M306.718,0l-.525,2.863a2.866,2.866,0,0,1-.834-.289Zm0,0" transform="translate(-283.395 0)"/><path class="j" d="M35.123,0V34.652c-.128-.068-.256-.139-.381-.21a18.482,18.482,0,0,1-7.374-7.735V0Zm0,0" transform="translate(-25.399 0)"/><g transform="translate(6.492 2.014)"><path class="k" d="M90.258,28H93.45v1.085H90.258Zm0,0" transform="translate(-90.258 -28.004)"/><path class="k" d="M90.258,76.418H93.45V77.5H90.258Zm0,0" transform="translate(-90.258 -72.936)"/><path class="k" d="M90.258,124.832H93.45v1.085H90.258Zm0,0" transform="translate(-90.258 -117.867)"/><path class="k" d="M90.258,173.246H93.45v1.085H90.258Zm0,0" transform="translate(-90.258 -162.799)"/><path class="k" d="M90.258,221.66H93.45v1.085H90.258Zm0,0" transform="translate(-90.258 -207.73)"/><path class="k" d="M90.258,270.074H93.45v1.085H90.258Zm0,0" transform="translate(-90.258 -252.662)"/><path class="k" d="M90.258,318.488H93.45v1.085H90.258Zm0,0" transform="translate(-90.258 -297.593)"/><path class="k" d="M90.258,366.9H93.45v1.085H90.258Zm0,0" transform="translate(-90.258 -342.525)"/><path class="k" d="M90.258,415.316H93.45V416.4H90.258Zm0,0" transform="translate(-90.258 -387.457)"/><path class="k" d="M108.394,463.734v1.085h-.342a18.4,18.4,0,0,1-1.692-1.085Zm0,0" transform="translate(-105.201 -432.392)"/></g></g></svg>