<svg xmlns="http://www.w3.org/2000/svg" width="29.923" height="35.677" viewBox="0 0 29.923 35.677"><defs><style>.a{fill:#ac92ec;}.b{fill:#967adc;}.c{fill:#ffce54;}.d{fill:#f6bb42;}.e{fill:#eac6bb;}.f{fill:#d3b1a9;}.g{fill:#876ed3;}.h{fill:#b7a4f4;}</style></defs><g transform="translate(0 0)"><path class="a" d="M46.905,361.726h2.877l2.3,1.726,2.3-1.726h2.877V360h2.3a4.6,4.6,0,0,1,4.6,4.6v4.6a.577.577,0,0,1-.575.575H40.575a.577.577,0,0,1-.575-.575v-4.6a4.6,4.6,0,0,1,4.6-4.6h2.3Zm0,0" transform="translate(-37.123 -334.105)"/><path class="b" d="M282.3,360H280a4.6,4.6,0,0,1,4.6,4.6v4.6a.577.577,0,0,1-.575.575h2.3a.577.577,0,0,0,.575-.575v-4.6A4.6,4.6,0,0,0,282.3,360Zm0,0" transform="translate(-259.859 -334.105)"/><path class="c" d="M116.66,308.028v1.726h-2.877l-2.3,1.726-2.3-1.726H106.3v-2.3l-2.3-1.726L106.3,304a8.632,8.632,0,0,0,10.358,0l2.3,1.726-2.3,1.726Zm0,0" transform="translate(-96.519 -282.133)"/><path class="d" d="M257.726,304a8.583,8.583,0,0,1-1.259.782l1.259.944L256,307.453v2.3h1.726v-2.3l2.3-1.726Zm0,0" transform="translate(-237.586 -282.133)"/><path class="c" d="M88,144h17.263v1.726H88Zm0,0" transform="translate(-81.67 -133.642)"/><path class="e" d="M105.263,168v2.877a8.632,8.632,0,0,1-17.263,0V168Zm0,0" transform="translate(-81.67 -155.916)"/><path class="f" d="M199.481,168v2.877A8.615,8.615,0,0,1,192,179.425a8.622,8.622,0,0,0,9.783-8.548V168Zm0,0" transform="translate(-178.189 -155.916)"/><path class="b" d="M19.947,13.179,17,14.905a1.141,1.141,0,0,0-1-.575L17.726,8Zm0,0" transform="translate(-14.849 -7.425)"/><path class="d" d="M2.146,96.575a1.077,1.077,0,0,1,.155.575A1.151,1.151,0,1,1,1.151,96a1.141,1.141,0,0,1,1,.575Zm0,0" transform="translate(0 -89.095)"/><path class="c" d="M193.726,80.155a1.135,1.135,0,0,1,.575,1A1.149,1.149,0,1,1,193.151,80,1.077,1.077,0,0,1,193.726,80.155Zm0,0" transform="translate(-178.189 -74.246)"/><path class="d" d="M385.151,88A1.151,1.151,0,1,1,384,89.151a1.077,1.077,0,0,1,.155-.575A1.141,1.141,0,0,1,385.151,88Zm0,0" transform="translate(-356.379 -81.67)"/><path class="g" d="M350.54,8l1.726,5.754a1.141,1.141,0,0,0-1,.575l-2.7-1.726Zm0,0" transform="translate(-323.494 -7.425)"/><path class="h" d="M173.754,0l-2.3,5.91a1.077,1.077,0,0,0-.575-.155,1.149,1.149,0,0,0-.575.155L168,0Zm0,0" transform="translate(-155.916)"/><path class="a" d="M60.716,8.632v1.726H43.453V8.632L42.221,5.754,40,.575,42.877,0l5.179,5.179L49.207,0l2.3,5.91a1.142,1.142,0,0,0-.575,1,1.151,1.151,0,0,0,2.3,0,1.134,1.134,0,0,0-.575-1L54.962,0l1.151,5.179L61.291,0l2.877.575-1.974,4.6Zm0,0" transform="translate(-37.123)"/><path class="b" d="M299.658,2.168,296,10.644V12.37h2.3V10.644l1.479-3.453,1.974-4.6Zm0,0" transform="translate(-274.708 -2.012)"/><path class="d" d="M296,144h2.3v1.726H296Zm0,0" transform="translate(-274.709 -133.642)"/><g transform="translate(14.4 31.074)"><path class="b" d="M200.777,433.151a.575.575,0,0,1-.006-1.151h.006a.575.575,0,1,1,0,1.151Zm0,0" transform="translate(-200.199 -432)"/><path class="b" d="M200.777,465.151a.575.575,0,0,1-.006-1.151h.006a.575.575,0,1,1,0,1.151Zm0,0" transform="translate(-200.199 -461.698)"/></g></g></svg>