<svg xmlns="http://www.w3.org/2000/svg" width="35.217" height="33.146" viewBox="0 0 35.217 33.146"><defs><style>.a{fill:#f4ad31;}.b{fill:#e2821a;}.c{fill:#d32a0f;}.d{fill:#b71100;}.e{fill:#0878a0;}.f{fill:#0c6c8e;}.g{fill:#3d3736;}.h{fill:#0caa7d;}.i{fill:#720d20;}.j{fill:#783089;}</style></defs><g transform="translate(0 0)"><path class="a" d="M105.961,28.268a10.69,10.69,0,0,1,6.79-2.359,11.576,11.576,0,0,1,3.971.748,12.115,12.115,0,0,0,.115-1.439,10.818,10.818,0,1,0-21.637,0,11.211,11.211,0,0,0,.115,1.439,11.078,11.078,0,0,1,3.971-.748A10.953,10.953,0,0,1,105.961,28.268Z" transform="translate(-88.352 -14.4)"/><path class="b" d="M150.4,25.909a11.157,11.157,0,0,1,6.79,2.359,10.69,10.69,0,0,1,6.79-2.359,11.576,11.576,0,0,1,3.971.748,12.115,12.115,0,0,0,.115-1.439A10.806,10.806,0,0,0,157.248,14.4" transform="translate(-139.582 -14.4)"/><path class="c" d="M13.523,194.87a11.21,11.21,0,0,1,.115-1.439,10.911,10.911,0,0,1-6.79-8.632,10.822,10.822,0,0,0,3.971,20.889,11.157,11.157,0,0,0,6.79-2.359A10.928,10.928,0,0,1,13.523,194.87Z" transform="translate(0 -172.543)"/><path class="d" d="M150.4,317.057a11.157,11.157,0,0,0,6.79-2.359,10.753,10.753,0,0,1-4.086-8.459,11.211,11.211,0,0,1,.115-1.439" transform="translate(-139.582 -283.911)"/><path class="e" d="M254.761,184.8a10.783,10.783,0,0,1-6.79,8.632,12.115,12.115,0,0,1,.115,1.439A10.928,10.928,0,0,1,244,203.329a10.69,10.69,0,0,0,6.79,2.359,10.822,10.822,0,0,0,3.971-20.889Z" transform="translate(-226.449 -172.543)"/><path class="f" d="M244.8,333.259a10.69,10.69,0,0,0,6.79,2.359A10.806,10.806,0,0,0,262.409,324.8" transform="translate(-227.191 -302.473)"/><path class="g" d="M193.571,207.2a10.733,10.733,0,0,0-3.971,6.963,11.078,11.078,0,0,0,3.971.748,11.576,11.576,0,0,0,3.971-.748A11.017,11.017,0,0,0,193.571,207.2Z" transform="translate(-175.962 -193.332)"/><path d="M244.8,215.711a11.576,11.576,0,0,0,3.971-.748A10.733,10.733,0,0,0,244.8,208" transform="translate(-227.191 -194.074)"/><path class="h" d="M248.771,183.78a10.911,10.911,0,0,0,6.79-8.632,11.078,11.078,0,0,0-3.971-.748,11.286,11.286,0,0,0-6.79,2.359A11.006,11.006,0,0,1,248.771,183.78Z" transform="translate(-227.191 -162.891)"/><path class="i" d="M105.961,176.759a10.69,10.69,0,0,0-6.79-2.359,11.576,11.576,0,0,0-3.971.748,10.783,10.783,0,0,0,6.79,8.632A11.006,11.006,0,0,1,105.961,176.759Z" transform="translate(-88.352 -162.891)"/><path class="j" d="M196.171,306.239a11.211,11.211,0,0,0-.115-1.439,11.078,11.078,0,0,1-3.971.748,11.576,11.576,0,0,1-3.971-.748,12.115,12.115,0,0,0-.115,1.439,10.928,10.928,0,0,0,4.086,8.459A10.928,10.928,0,0,0,196.171,306.239Z" transform="translate(-174.477 -283.911)"/></g></svg>