<svg xmlns="http://www.w3.org/2000/svg" width="36.828" height="36.828" viewBox="0 0 36.828 36.828"><defs><style>.a{fill:#08f;}.b{fill:#4b5be4;}.c{fill:#ed2500;}.d{fill:#ff4f19;}.e{fill:#51dae6;}</style></defs><g transform="translate(0 0)"><path class="a" d="M212.8,64.317a2.158,2.158,0,1,1,2.158-2.158A2.161,2.161,0,0,1,212.8,64.317Z" transform="translate(-195.494 -55.685)"/><path class="b" d="M280.263,154.389l-1.581-2.107a1.079,1.079,0,0,1,1.726-1.294l1.581,2.107A1.079,1.079,0,0,1,280.263,154.389Z" transform="translate(-258.421 -139.715)"/><g transform="translate(0 0)"><path class="c" d="M.989,281.633,6.937,275.7l1.732-5.2a1.1,1.1,0,0,1,1.094-.736c1.454.1.676,1.268,1.383,1.976l2.46,2.46a1.077,1.077,0,0,1,.262,1.1l-1.036,3.172a3.383,3.383,0,0,1-.781,1.27l-6.474,6.474C2.42,289.222-1.99,284.612.989,281.633Z" transform="translate(-0.001 -250.369)"/><path class="c" d="M64.962,8.633a4.316,4.316,0,1,1,4.316-4.316A4.32,4.32,0,0,1,64.962,8.633Z" transform="translate(-56.284 -0.001)"/></g><path class="d" d="M95.556,149.828l1.708-6.856-3.021-3.021a3.258,3.258,0,0,1-.876-1.641L91.207,127.4a1.079,1.079,0,0,1,2.114-.434,1.111,1.111,0,0,0,.29.559l4.316,4.316c.426.426.807.222.964,1l.626,3.221,3.63,3.611a3.221,3.221,0,0,1,.845,3.083l-2.157,8.625C100.854,155.5,94.52,154.018,95.556,149.828Z" transform="translate(-84.623 -117.044)"/><path class="c" d="M95.735,99.653,91.42,95.338a3.245,3.245,0,0,1,4.59-4.59l2.44,2.44,4.272-2.835a3.215,3.215,0,0,1,4.478.915,3.13,3.13,0,0,1,.478,2.392,3.241,3.241,0,0,1-1.388,2.072l-6.476,4.318A3.24,3.24,0,0,1,95.735,99.653Z" transform="translate(-83.957 -83.332)"/><g transform="translate(26.024 0)"><path class="e" d="M427.948,183.475l-2.158-2.158a1.08,1.08,0,0,0-1.842.763v5.395a2.158,2.158,0,0,0,0,4.316,2.213,2.213,0,0,0,2.158-2.158v-4.948l.316.316A1.079,1.079,0,0,0,427.948,183.475Z" transform="translate(-417.474 -167.981)"/><path class="e" d="M367.948,2.475,365.79.317a1.08,1.08,0,0,0-1.842.763V6.474a2.158,2.158,0,0,0,0,4.316,2.213,2.213,0,0,0,2.158-2.158V3.684l.316.316A1.079,1.079,0,0,0,367.948,2.475Z" transform="translate(-361.79 0)"/></g></g></svg>