<svg xmlns="http://www.w3.org/2000/svg" width="36.633" height="36.633" viewBox="0 0 36.633 36.633"><defs><style>.a{fill:#6eb1e1;}.b{fill:#dededf;}.c{fill:#646b79;}.d{fill:#f1f3f7;}.e{fill:#414753;}</style></defs><g transform="translate(0 0)"><circle class="a" cx="18.317" cy="18.317" r="18.317" transform="translate(0 0)"/><rect class="b" width="5.146" height="5.829" transform="translate(15.756 27.804)"/><path class="c" d="M169.05,16.275h0a6.641,6.641,0,0,0-6.634,6.634V33.421a6.641,6.641,0,0,0,6.634,6.634h0a6.641,6.641,0,0,0,6.634-6.634V22.909A6.641,6.641,0,0,0,169.05,16.275Z" transform="translate(-150.733 -15.104)"/><g transform="translate(8.219 10.902)"><path class="d" d="M124.365,169.322a10.118,10.118,0,0,1-10.1-10.1v-6.8a.854.854,0,0,1,1.707,0v6.8a8.39,8.39,0,0,0,16.78,0v-6.8a.854.854,0,0,1,1.707,0v6.8A10.118,10.118,0,0,1,124.365,169.322Z" transform="translate(-114.268 -151.566)"/><rect class="d" width="13.366" height="1.707" transform="translate(3.415 21.853)"/></g><g transform="translate(11.683 8.536)"><path class="e" d="M166.172,118.675h-3.756v2.1h3.756a1.049,1.049,0,1,0,0-2.1Z" transform="translate(-162.416 -118.675)"/><path class="e" d="M166.172,167.163h-3.756v2.1h3.756a1.049,1.049,0,1,0,0-2.1Z" transform="translate(-162.416 -163.675)"/><path class="e" d="M166.172,215.65h-3.756v2.1h3.756a1.049,1.049,0,1,0,0-2.1Z" transform="translate(-162.416 -208.675)"/><path class="e" d="M281.123,217.749h3.756v-2.1h-3.756a1.041,1.041,0,0,0-1.049,1.049A1.057,1.057,0,0,0,281.123,217.749Z" transform="translate(-271.611 -208.675)"/><path class="e" d="M281.123,169.26h3.756v-2.1h-3.756a1.049,1.049,0,0,0,0,2.1Z" transform="translate(-271.611 -163.675)"/><path class="e" d="M281.123,120.773h3.756v-2.1h-3.756a1.049,1.049,0,0,0,0,2.1Z" transform="translate(-271.611 -118.676)"/></g></g></svg>