<svg xmlns="http://www.w3.org/2000/svg" width="26.452" height="28.521" viewBox="0 0 26.452 28.521"><defs><style>.a{fill:#38454f;}.b{fill:#50508a;stroke:#283238;stroke-width:4px;}.b,.d{stroke-linecap:round;stroke-miterlimit:10;}.c{fill:#546a79;}.d{fill:#434c6d;stroke:#7383bf;stroke-width:2px;}.e{fill:#283238;}.f{fill:#afb6bb;}.g{fill:#71c3a9;}.h{fill:#d75e72;}</style></defs><g transform="translate(0 -0.352)"><path class="a" d="M28.993,19.47H22.625V18H10.868v1.47H4.5V35.145h6.368V37.1H22.625V35.145h6.368Z" transform="translate(-3.52 -9.211)"/><ellipse class="b" cx="7.5" cy="8" rx="7.5" ry="8" transform="translate(5.762 10.352)"/><g transform="translate(0 10.258)"><path class="c" d="M5.929,29.328A9.747,9.747,0,0,1,9.122,22.1.636.636,0,0,0,8.69,21H3.461a.961.961,0,0,0-.961.961V35.715a.961.961,0,0,0,.961.961H7.746a.639.639,0,0,0,.479-1.059A9.731,9.731,0,0,1,5.929,29.328Z" transform="translate(-2.5 -21)"/><path class="c" d="M43.2,21a.636.636,0,0,0-.432,1.1,9.764,9.764,0,0,1,.9,13.512.639.639,0,0,0,.479,1.059h4.286a.961.961,0,0,0,.961-.961V21.961A.961.961,0,0,0,48.427,21Z" transform="translate(-22.935 -21)"/></g><ellipse class="d" cx="3.5" cy="4" rx="3.5" ry="4" transform="translate(9.762 14.352)"/><rect class="e" width="4" height="2" transform="translate(1.762 8.352)"/><path class="f" d="M28.746,53a.49.49,0,0,0-.49.49v1.47H17.48V53.49a.49.49,0,0,0-.98,0v1.959a.49.49,0,0,0,.49.49H28.746a.49.49,0,0,0,.49-.49V53.49A.49.49,0,0,0,28.746,53Z" transform="translate(-9.642 -27.066)"/><circle class="a" cx="3.5" cy="3.5" r="3.5" transform="translate(9.762 0.352)"/><path class="c" d="M28.48,13.85a3.424,3.424,0,0,1-.98-.144v2.1h1.959v-2.1A3.424,3.424,0,0,1,28.48,13.85Z" transform="translate(-15.254 -7.021)"/><circle class="c" cx="1.5" cy="1.5" r="1.5" transform="translate(11.762 2.352)"/><path class="f" d="M28.746,16H16.99a.49.49,0,0,0-.49.49v1.47a.49.49,0,0,0,.98,0v-.98H28.257v.98a.49.49,0,0,0,.98,0V16.49A.49.49,0,0,0,28.746,16Z" transform="translate(-9.642 -8.191)"/><rect class="e" width="3" height="2" transform="translate(21.762 8.352)"/><circle class="g" cx="1.5" cy="1.5" r="1.5" transform="translate(11.762 16.352)"/><ellipse class="h" cx="1.5" cy="1" rx="1.5" ry="1" transform="translate(11.762 22.352)"/></g></svg>