<svg xmlns="http://www.w3.org/2000/svg" xmlns:xlink="http://www.w3.org/1999/xlink" width="37" height="37" viewBox="0 0 37 37"><defs><style>.a{fill:url(#a);}.b{fill:#f4c342;}.c{fill:#f89b36;}.d{fill:#ec7c2d;}.e{fill:#d9521e;}.f{fill:#bdc3c7;}.g{fill:#94a5a6;}.h{fill:#ecf0f1;}</style><radialGradient id="a" cx="18.5" cy="18.501" r="18.5" gradientTransform="matrix(1, 0, 0, -1, 0, 37.001)" gradientUnits="userSpaceOnUse"><stop offset="0.005" stop-color="#33495f"/><stop offset="1" stop-color="#2b3e51"/></radialGradient></defs><g transform="translate(-0.403 0.148)"><g transform="translate(0 0)"><circle class="a" cx="18.5" cy="18.5" r="18.5" transform="translate(0.403 -0.148)"/><g transform="translate(5.611 2.88)"><path class="b" d="M176.591,135.316a6.672,6.672,0,0,0-13.344,0q0,.18.009.357l-.01,0c0,1.848,1.54,4.584,2.156,5.611A16.461,16.461,0,0,1,166.532,145h6.825a15.557,15.557,0,0,1,1.078-3.712c.616-1.026,2.156-3.755,2.156-5.6l-.01-.007C176.587,135.559,176.591,135.435,176.591,135.316Z" transform="translate(-157.089 -122.28)"/><path class="c" d="M262.672,135.316A6.636,6.636,0,0,0,256,128.644V145h3.438a15.558,15.558,0,0,1,1.078-3.712c.616-1.026,2.156-3.755,2.156-5.6l-.01-.007C262.668,135.559,262.672,135.435,262.672,135.316Z" transform="translate(-243.17 -122.28)"/><g transform="translate(9.629 16.526)"><path class="d" d="M216.785,276.417a.287.287,0,0,1-.288-.282V272.7a1.408,1.408,0,0,1,.131-.559l.645-1.343H216.5c-.04,0-.121,0-.141.031l-.546.916a.4.4,0,0,1-.38.216.424.424,0,0,1-.357-.269l-.38-.822-.376.816a.4.4,0,0,1-.737.034l-.546-.891c-.02-.035-.1-.032-.141-.032h-.774l.643,1.344a1.428,1.428,0,0,1,.135.558v3.438a.253.253,0,1,1-.5,0V272.7a1.185,1.185,0,0,0-.114-.372l-.734-1.561a.413.413,0,0,1,.39-.617h.958a.763.763,0,0,1,.63.354l.4.688.4-.865c.133-.289.183-.4.371-.4s.238.107.372.4l.4.865.4-.686a.763.763,0,0,1,.629-.354h.958a.421.421,0,0,1,.4.621l-.719,1.56a1.09,1.09,0,0,0-.073.368v3.438A.287.287,0,0,1,216.785,276.417Z" transform="translate(-211.497 -269.926)"/></g><path class="e" d="M258.762,270.137H257.8a.763.763,0,0,0-.629.354l-.4.69-.4-.868c-.133-.287-.153-.4-.369-.4v.943l.378.815a.4.4,0,0,0,.737.034l.546-.891c.02-.035.1-.032.141-.032h.772l-.645,1.343a1.408,1.408,0,0,0-.131.559v3.421h.575v-3.421a1.1,1.1,0,0,1,.073-.37l.722-1.562a.43.43,0,0,0-.018-.427A.443.443,0,0,0,258.762,270.137Z" transform="translate(-243.171 -253.389)"/><g transform="translate(8.73 22.43)"><path class="f" d="M200.021,352a.939.939,0,0,0-1.021.921v3.593a4.131,4.131,0,0,0,4.1,4.106V352Z" transform="translate(-199 -352)"/><path class="g" d="M259.079,352H256v8.619a4.085,4.085,0,0,0,4.1-4.106v-3.593A.94.94,0,0,0,259.079,352Z" transform="translate(-251.9 -352)"/></g><path class="f" d="M260.675,368.023v-.77c0-.141-.172-.253-.313-.253H256v1.295h4.362A.326.326,0,0,0,260.675,368.023Z" transform="translate(-243.17 -343.491)"/><path class="h" d="M192.241,367a.241.241,0,0,0-.241.253v.77a.259.259,0,0,0,.241.272H196.6V367Z" transform="translate(-183.773 -343.491)"/><path class="f" d="M260.362,401.295a.337.337,0,0,0,.313-.285v-.77c0-.141-.172-.24-.313-.24H256v1.295Z" transform="translate(-243.17 -374.117)"/><path class="h" d="M192,400.24v.77a.271.271,0,0,0,.241.285H196.6V400h-4.362A.231.231,0,0,0,192,400.24Z" transform="translate(-183.773 -374.117)"/><g transform="translate(12.111)"><path class="b" d="M246.755,43.97A.758.758,0,0,1,246,43.2V40.942a.755.755,0,1,1,1.511,0V43.2A.758.758,0,0,1,246.755,43.97Z" transform="translate(-246 -40.172)"/></g><g transform="translate(12.111)"><path class="b" d="M246.755,43.97A.758.758,0,0,1,246,43.2V40.942a.755.755,0,1,1,1.511,0V43.2A.758.758,0,0,1,246.755,43.97Z" transform="translate(-246 -40.172)"/></g><g transform="translate(21.863 12.144)"><path class="c" d="M384.6,210.511H382.34a.755.755,0,1,1,0-1.511H384.6a.755.755,0,1,1,0,1.511Z" transform="translate(-381.57 -209)"/></g><g transform="translate(21.863 12.144)"><path class="c" d="M384.6,210.511H382.34a.755.755,0,1,1,0-1.511H384.6a.755.755,0,1,1,0,1.511Z" transform="translate(-381.57 -209)"/></g><g transform="translate(0 12.144)"><path class="b" d="M80.658,210.511H78.4a.755.755,0,1,1,0-1.511h2.258a.755.755,0,1,1,0,1.511Z" transform="translate(-77.63 -209)"/></g><g transform="translate(3.532 3.532)"><path class="b" d="M129.1,92.417a.767.767,0,0,1-.544-.226l-1.6-1.6a.77.77,0,0,1,1.089-1.089l1.6,1.6a.77.77,0,0,1-.544,1.314Z" transform="translate(-126.738 -89.281)"/></g><g transform="translate(18.992 3.532)"><path class="c" d="M342.427,92.418a.77.77,0,0,1-.544-1.314l1.6-1.6a.77.77,0,0,1,1.089,1.089l-1.6,1.6A.767.767,0,0,1,342.427,92.418Z" transform="translate(-341.657 -89.282)"/></g><g transform="translate(18.992 3.532)"><path class="c" d="M342.427,92.418a.77.77,0,0,1-.544-1.314l1.6-1.6a.77.77,0,0,1,1.089,1.089l-1.6,1.6A.767.767,0,0,1,342.427,92.418Z" transform="translate(-341.657 -89.282)"/></g></g></g></g></svg>